<svg width="837" height="833" viewBox="0 0 837 833" fill="none" xmlns="http://www.w3.org/2000/svg">
<path fill-rule="evenodd" clip-rule="evenodd" d="M787.486 256.403C811.524 281.567 827.324 312.964 833.421 347.422V347.537C839.288 381.089 835.338 415.433 822.019 446.83L819.652 452.499L737.825 467.008C735.57 482.764 732.07 498.405 727.442 513.708L794.597 560.974V566.983C793.917 601.894 782.972 635.446 762.995 664.009C743.583 691.893 716.608 713.429 685.006 726.125L679.363 728.392L568.308 650.294L580.836 640.885C587.947 635.558 594.943 629.666 601.715 623.545L608.373 617.423L684.104 670.698C699.228 661.631 711.982 649.729 722.139 635.22C732.52 620.143 739.407 603.367 742.566 585.232L667.515 532.41L670.9 524.022C682.751 495.118 689.52 464.627 690.988 433.456V423.48L701.26 422.574L782.519 408.179C786.807 390.95 787.486 373.495 784.436 356.037C781.278 337.902 774.394 321.241 763.783 306.164L673.608 322.146L670.108 313.758C658.145 284.969 641.33 258.557 620.113 235.207L614.016 228.519L667.288 152.575C658.26 137.386 646.409 124.577 631.961 114.376C616.951 103.948 600.248 97.0332 582.191 93.8594L529.596 169.351L521.244 165.95C492.24 154.048 461.767 147.247 430.957 145.774L421.926 145.32L405.902 53.847C388.745 49.5398 371.365 48.8594 353.985 51.9201C335.926 55.0939 319.335 62.0081 304.325 72.6631L320.24 163.343L311.886 166.857C303.537 170.371 295.297 174.338 287.395 178.645L273.626 186.126L250.265 53.0535L254.667 48.8594C279.722 24.716 311.097 8.84704 345.293 2.72614C378.7 -3.2814 412.898 0.685843 444.273 14.1745L449.916 16.5548L464.364 98.847C480.05 101.114 495.624 104.628 510.86 109.275L557.924 41.832H563.906C598.669 42.5121 632.076 53.5069 660.516 73.5698C688.279 93.0662 709.723 120.157 722.363 151.895L724.621 157.562L676.881 225.912C686.588 238.721 695.052 251.983 702.613 266.265L783.31 251.983L787.486 256.403ZM575.097 331.571C577.501 335.901 579.813 340.423 581.834 345.044C592.131 368.045 597.905 393.547 597.905 420.299C597.905 425.207 597.713 430.018 597.327 434.831C596.941 440.413 596.268 445.994 595.306 451.383C594.345 457.348 592.997 463.316 591.359 469.185C589.917 474.479 588.184 479.773 586.261 484.871C575.385 514.033 557.198 539.725 534.004 559.646C530.155 563.014 526.208 566.094 522.072 569.077C516.778 572.925 511.196 576.584 505.424 579.854C501.189 582.359 496.857 584.57 492.432 586.688C468.66 597.947 442.101 604.203 414.097 604.203C408.996 604.203 403.8 603.915 398.797 603.529C394.464 603.143 390.23 602.662 385.995 601.989C378.683 600.834 371.561 599.294 364.537 597.371C360.495 596.312 356.549 595.06 352.602 593.618C321.327 582.549 293.997 563.305 273.112 538.378C270.225 535.01 267.435 531.449 264.836 527.793C260.699 522.018 256.85 516.054 253.384 509.798C251.172 505.946 249.247 502.003 247.322 497.961C236.351 474.381 230.192 448.015 230.192 420.299C230.192 413.949 230.481 407.693 231.155 401.533C231.54 397.684 232.021 393.835 232.695 389.986C234.042 382.479 235.678 374.974 237.891 367.754C239.046 364.003 240.297 360.249 241.644 356.593C253.191 325.218 273.112 297.888 298.615 277.295C301.983 274.504 305.544 271.809 309.2 269.307C315.072 265.266 321.135 261.512 327.39 258.144C331.334 256.027 335.473 254.006 339.61 252.177C362.323 242.073 387.535 236.491 414.097 236.491C420.159 236.491 426.127 236.78 432.092 237.357C437.193 237.839 442.389 238.608 447.392 239.475C453.745 240.63 460.001 242.073 466.063 243.901C471.164 245.345 476.168 247.077 481.076 249.002C510.332 260.454 535.93 279.219 555.658 302.989C558.833 306.743 561.815 310.689 564.702 314.826C568.456 320.215 571.922 325.797 575.097 331.571ZM364.151 490.839C365.113 491.608 366.267 492.379 367.326 493.053L367.421 492.955C381.377 502.388 398.123 507.777 416.118 507.777C420.352 507.777 424.489 507.487 428.629 506.911L428.883 506.877C430.348 506.696 431.888 506.503 433.344 506.139C455.381 501.81 474.34 489.106 487.043 471.592C487.186 471.391 487.329 471.198 487.471 471.01C487.801 470.566 488.12 470.138 488.391 469.666C498.014 455.618 503.593 438.585 503.593 420.299C503.593 415.489 503.21 410.868 502.439 406.248C502.344 405.287 502.151 404.325 501.958 403.364C497.628 381.517 485.213 362.558 467.986 349.854L465.966 348.412C451.82 338.5 434.593 332.726 416.02 332.726C411.305 332.726 406.782 333.014 402.26 333.785L401.879 333.849L401.443 333.928C401.181 333.975 400.91 334.025 400.625 334.073C378.392 338.02 358.955 350.338 345.963 367.754C345.195 368.81 344.421 369.873 343.652 371.027C334.028 385.078 328.447 402.013 328.447 420.299C328.447 424.436 328.737 428.575 329.313 432.522C329.377 432.905 329.431 433.288 329.484 433.674C329.59 434.442 329.699 435.216 329.892 435.985C333.933 458.407 346.444 477.847 364.151 490.839ZM70.0586 548.194C108.751 548.194 140.117 516.828 140.117 478.135C140.117 439.443 108.751 408.076 70.0586 408.076C31.3663 408.076 0 439.443 0 478.135C0 516.828 31.3663 548.194 70.0586 548.194ZM283.507 704.192C283.507 742.884 252.14 774.248 213.448 774.248C174.756 774.248 143.389 742.884 143.389 704.192C143.389 665.499 174.756 634.132 213.448 634.132C252.14 634.132 283.507 665.499 283.507 704.192ZM474.242 832.47C512.934 832.47 544.301 801.103 544.301 762.414C544.301 723.721 512.934 692.354 474.242 692.354C435.549 692.354 404.185 723.721 404.185 762.414C404.185 801.103 435.549 832.47 474.242 832.47ZM201.13 217.822C201.13 256.514 169.763 287.881 131.071 287.881C92.3786 287.881 61.0123 256.514 61.0123 217.822C61.0123 179.13 92.3786 147.763 131.071 147.763C169.763 147.763 201.13 179.13 201.13 217.822Z" fill="white"/>
</svg>
